<svg width="374" height="211" viewBox="0 0 374 211" fill="none" xmlns="http://www.w3.org/2000/svg">
<path d="M371.071 112.071C374.976 108.166 374.976 101.834 371.071 97.9289L307.431 34.2893C303.526 30.3841 297.195 30.3841 293.289 34.2893C289.384 38.1946 289.384 44.5262 293.289 48.4315L349.858 105L293.289 161.569C289.384 165.474 289.384 171.805 293.289 175.711C297.195 179.616 303.526 179.616 307.431 175.711L371.071 112.071ZM225 115H364V95H225V115Z" fill="#174276"/>
<path fill-rule="evenodd" clip-rule="evenodd" d="M125.397 0.911905C115.078 3.33439 102.428 13.754 95.9506 25.1658C91.9089 32.2869 80.6628 63.6532 81.7694 64.7191C82.2519 65.1832 83.4641 65.7094 84.4622 65.8867C85.999 66.1609 87.1899 63.691 92.2645 49.7045C99.2316 30.504 102.801 23.8121 109.819 16.7937C127.207 -0.59391 148.018 3.659 154.511 25.9284C156.937 34.2501 155.856 48.2675 151.853 60.3964C148.866 69.4419 148.65 70.9885 148.596 83.6522C148.545 95.8373 148.766 97.7113 150.771 102.063C151.999 104.728 154.179 108.161 155.616 109.692C163.265 117.842 176.298 116.731 187.515 106.971C192.151 102.936 200.999 89.9284 204.021 82.7007L206.041 77.8731L203.453 76.7782C200.935 75.7142 200.794 75.8373 198.261 81.3266C194.728 88.9855 188.812 97.5165 184.055 101.814C173.953 110.941 164.905 111.727 158.539 104.031C152.663 96.9264 152.34 77.9361 157.814 61.3654C160.781 52.3848 161.019 50.7181 161.069 38.5941C161.136 22.1028 159.36 16.7995 150.967 8.40609C143.345 0.783998 135.605 -1.48441 125.397 0.911905ZM57.4535 64.7947C38.8188 68.6144 25.2732 81.4245 18.7219 101.424C17.7897 104.269 17.4021 106.919 17.8605 107.311C19.8101 108.981 61.0988 123.028 61.8362 122.273C63.2636 120.809 64.0552 116.113 62.874 116.113C61.3711 116.113 57.9457 110.277 57.9418 107.71C57.9399 106.552 59.717 100.666 61.8915 94.629C66.3944 82.1261 69.4002 78.3228 74.781 78.3228C77.8575 78.3228 78.1347 78.0272 80.0949 72.6512C81.2325 69.5321 82.1628 66.7433 82.1628 66.4526C82.1628 65.6105 70.3052 63.7772 65.6105 63.8945C63.2558 63.9526 59.5853 64.3576 57.4535 64.7947ZM83.5891 67.7074C83.2868 68.1958 82.2306 70.9487 81.2413 73.8247L79.4428 79.0524L81.7984 80.8683C86.2626 84.3073 86.2936 87.6648 81.9796 100.321C77.467 113.558 74.6172 117.372 69.1511 117.492C66.2539 117.555 65.561 118.012 64.7219 120.413C64.1744 121.978 64.0591 123.572 64.4661 123.955C64.873 124.338 74.9351 128.136 86.8275 132.394C107.964 139.964 108.467 140.092 109.219 138.058C114.868 122.778 116.186 113.575 114.193 103.325C112.301 93.597 107.899 85.4652 100.66 78.3228C94.282 72.0311 84.6279 66.0272 83.5891 67.7074ZM8.64631 129.446C0.296501 152.95 -1.11532 160.216 0.696694 170.359C6.6027 203.406 40.687 220.364 71.3159 205.495C78.3992 202.056 87.7258 192.767 91.4932 185.396C94.5281 179.457 107.937 142.469 107.251 141.927C106.735 141.52 16.8488 109.329 16.2568 109.339C15.9981 109.343 12.5736 118.392 8.64631 129.446Z" fill="#174276"/>
</svg>
