<svg width="113" height="121" viewBox="0 0 113 121" fill="none" xmlns="http://www.w3.org/2000/svg">
<path fill-rule="evenodd" clip-rule="evenodd" d="M53.3588 0.453609C50.1511 1.43863 48.1377 3.23897 46.6054 6.49299L45.7536 8.30188V39.7108V71.1196L46.609 72.9437C50.6468 81.5523 62.2381 81.5523 66.2759 72.9437L67.1313 71.1196L67.2218 40.7073C67.2833 20.0669 67.1994 9.7513 66.961 8.60249C65.6888 2.47364 59.2811 -1.36515 53.3588 0.453609ZM25.0336 16.5034C-19.0997 46.1981 -1.51763 114.917 51.5091 119.981C99.9305 124.605 130.796 68.6237 101.478 29.3508C97.1832 23.5975 85.6521 13.5861 84.6272 14.7205C79.4736 20.427 74.1498 33.302 76.3435 34.7547C97.9206 49.0436 95.6523 82.9439 72.3278 94.7773C40.9916 110.675 8.63418 75.5948 26.6159 45.2183C28.8414 41.4585 36.6236 33.874 39.1041 33.0471C39.2939 32.984 37.2853 29.0775 34.6407 24.3658C31.9965 19.6541 29.6541 15.4072 29.4357 14.9283C28.9214 13.7993 29.2012 13.6993 25.0336 16.5034Z" fill="black"/>
</svg>
